<svg xmlns="http://www.w3.org/2000/svg" xmlns:xlink="http://www.w3.org/1999/xlink" width="500" zoomAndPan="magnify" viewBox="0 0 375 374.999991" height="500" preserveAspectRatio="xMidYMid meet" version="1.0"><defs><g/></defs><g fill="#000000" fill-opacity="1"><g transform="translate(83.533761, 201.374987)"><g><path d="M 19.203125 0 L 13.0625 0 L -1.03125 -26.265625 L 9.421875 -26.265625 L 15.828125 -12.078125 L 22.125 -26.265625 L 28.359375 -26.265625 L 34.671875 -12.078125 L 41.0625 -26.265625 L 51.515625 -26.265625 L 37.421875 0 L 31.28125 0 L 25.25 -13.5625 Z M 19.203125 0 "/></g></g></g><g fill="#000000" fill-opacity="1"><g transform="translate(129.202088, 201.374987)"><g><path d="M 29.640625 -11.875 L 10.59375 -11.875 C 10.59375 -10.03125 11.191406 -8.664062 12.390625 -7.78125 C 13.585938 -6.894531 14.882812 -6.453125 16.28125 -6.453125 C 17.75 -6.453125 18.910156 -6.644531 19.765625 -7.03125 C 20.617188 -7.425781 21.59375 -8.207031 22.6875 -9.375 L 29.234375 -6.09375 C 26.503906 -1.519531 21.960938 0.765625 15.609375 0.765625 C 11.648438 0.765625 8.253906 -0.585938 5.421875 -3.296875 C 2.585938 -6.015625 1.171875 -9.285156 1.171875 -13.109375 C 1.171875 -16.929688 2.585938 -20.207031 5.421875 -22.9375 C 8.253906 -25.664062 11.648438 -27.03125 15.609375 -27.03125 C 19.773438 -27.03125 23.164062 -25.828125 25.78125 -23.421875 C 28.394531 -21.015625 29.703125 -17.578125 29.703125 -13.109375 C 29.703125 -12.492188 29.679688 -12.082031 29.640625 -11.875 Z M 10.859375 -16.890625 L 20.84375 -16.890625 C 20.632812 -18.253906 20.09375 -19.300781 19.21875 -20.03125 C 18.351562 -20.769531 17.238281 -21.140625 15.875 -21.140625 C 14.375 -21.140625 13.175781 -20.75 12.28125 -19.96875 C 11.394531 -19.1875 10.921875 -18.160156 10.859375 -16.890625 Z M 10.859375 -16.890625 "/></g></g></g><g fill="#000000" fill-opacity="1"><g transform="translate(155.261102, 201.374987)"><g><path d="M 30.109375 -22.984375 C 32.566406 -20.285156 33.796875 -16.988281 33.796875 -13.09375 C 33.796875 -9.207031 32.566406 -5.925781 30.109375 -3.25 C 27.648438 -0.570312 24.523438 0.765625 20.734375 0.765625 C 17.253906 0.765625 14.390625 -0.476562 12.140625 -2.96875 L 12.03125 -2.96875 L 12.03125 0 L 3.078125 0 L 3.078125 -44.03125 L 12.140625 -44.03125 L 12.140625 -23.765625 C 14.390625 -25.941406 17.253906 -27.03125 20.734375 -27.03125 C 24.523438 -27.03125 27.648438 -25.679688 30.109375 -22.984375 Z M 22.46875 -8.671875 C 23.601562 -9.816406 24.171875 -11.296875 24.171875 -13.109375 C 24.171875 -14.921875 23.582031 -16.40625 22.40625 -17.5625 C 21.226562 -18.71875 19.769531 -19.296875 18.03125 -19.296875 C 16.320312 -19.296875 14.878906 -18.71875 13.703125 -17.5625 C 12.523438 -16.40625 11.9375 -14.921875 11.9375 -13.109375 C 11.9375 -11.335938 12.503906 -9.867188 13.640625 -8.703125 C 14.785156 -7.546875 16.25 -6.96875 18.03125 -6.96875 C 19.863281 -6.96875 21.34375 -7.535156 22.46875 -8.671875 Z M 22.46875 -8.671875 "/></g></g></g><g fill="#5e17eb" fill-opacity="1"><g transform="translate(185.416567, 201.374987)"><g><path d="M 27.234375 -42.25 L 27.234375 -33.796875 L 12.703125 -33.796875 L 12.703125 -25.390625 L 26.625 -25.390625 L 26.625 -16.953125 L 12.703125 -16.953125 L 12.703125 -8.453125 L 27.234375 -8.453125 L 27.234375 0 L 3.078125 0 L 3.078125 -42.25 Z M 27.234375 -42.25 "/></g></g></g><g fill="#5e17eb" fill-opacity="1"><g transform="translate(210.297995, 201.374987)"><g><path d="M 3.078125 -42.25 L 18.171875 -42.25 C 22.234375 -42.25 25.546875 -41.160156 28.109375 -38.984375 C 30.671875 -36.816406 31.953125 -33.722656 31.953125 -29.703125 C 31.953125 -26.585938 31.175781 -23.976562 29.625 -21.875 C 28.070312 -19.78125 25.960938 -18.304688 23.296875 -17.453125 L 37.84375 0 L 25.59375 0 L 12.703125 -16.6875 L 12.703125 0 L 3.078125 0 Z M 12.703125 -23.5 L 13.828125 -23.5 C 14.710938 -23.5 15.460938 -23.515625 16.078125 -23.546875 C 16.691406 -23.585938 17.390625 -23.707031 18.171875 -23.90625 C 18.960938 -24.113281 19.59375 -24.40625 20.0625 -24.78125 C 20.539062 -25.15625 20.953125 -25.703125 21.296875 -26.421875 C 21.640625 -27.140625 21.8125 -28.007812 21.8125 -29.03125 C 21.8125 -30.050781 21.640625 -30.921875 21.296875 -31.640625 C 20.953125 -32.359375 20.539062 -32.90625 20.0625 -33.28125 C 19.59375 -33.65625 18.960938 -33.941406 18.171875 -34.140625 C 17.390625 -34.347656 16.691406 -34.46875 16.078125 -34.5 C 15.460938 -34.539062 14.710938 -34.5625 13.828125 -34.5625 L 12.703125 -34.5625 Z M 12.703125 -23.5 "/></g></g></g><g fill="#5e17eb" fill-opacity="1"><g transform="translate(242.142523, 201.374987)"><g><path d="M 24.53125 -42.25 L 41.578125 0 L 31.234375 0 L 28.109375 -8.453125 L 12.03125 -8.453125 L 8.90625 0 L -1.4375 0 L 15.609375 -42.25 Z M 24.828125 -16.890625 L 20.125 -29.1875 L 20.015625 -29.1875 L 15.3125 -16.890625 Z M 24.828125 -16.890625 "/></g></g></g><g fill="#000000" fill-opacity="1"><g transform="translate(277.479061, 201.374987)"><g/></g></g></svg>